<svg width="487" height="406" viewBox="0 0 487 406" fill="none" xmlns="http://www.w3.org/2000/svg">
<g id="idea">
<g id="bubble">
<path id="bg" d="M415.064 187.878C415.064 204.776 411.059 218.686 404.113 230.602C401.82 234.526 399.217 238.262 396.33 241.773C370.793 272.989 323.315 290.075 280.405 317.75C153.741 399.441 140.02 268.54 145.741 187.878C148.049 155.33 160.731 125.517 180.878 102.689C185.11 97.8881 189.68 93.3969 194.555 89.2502C217.429 69.7813 246.979 58 280.405 58C337.752 58 386.725 92.5703 406.141 141.286C412.045 156.11 415.073 171.922 415.064 187.878Z" fill="#142850"/>
<g id="bubble-stripes">
<path id="Vector" d="M309.095 87.2706L180.878 102.689C185.11 97.8881 189.68 93.3969 194.555 89.2502L309.095 87.2706Z" fill="#D0CDE1"/>
<path id="Vector_2" d="M404.113 230.602C401.82 234.526 399.217 238.262 396.33 241.773L286.501 228.569L404.113 230.602Z" fill="#D0CDE1"/>
<path id="Vector_3" d="M410.622 154.681L224.486 130.552L406.141 141.286C407.886 145.663 409.382 150.135 410.622 154.681Z" fill="#D0CDE1"/>
</g>
</g>
<g id="top-left-globe">
<path id="Vector_4" d="M158.367 92.5953C158.367 92.9269 158.358 93.2536 158.329 93.5755C158.183 95.5708 157.594 97.5086 156.605 99.2476C155.615 100.987 154.25 102.483 152.608 103.628C150.967 104.773 149.091 105.538 147.116 105.866C145.142 106.195 143.119 106.079 141.195 105.528C139.27 104.976 137.494 104.003 135.994 102.678C134.494 101.353 133.308 99.7108 132.523 97.8703C131.739 96.0298 131.375 94.0376 131.458 92.0387C131.541 90.0398 132.069 88.0846 133.004 86.3155C133.293 85.7611 133.624 85.2295 133.994 84.7251C135.604 82.4937 137.86 80.8093 140.457 79.8993C143.054 78.9892 145.869 78.8971 148.52 79.6356C151.172 80.374 153.533 81.9074 155.285 84.0289C157.037 86.1504 158.096 88.758 158.319 91.4999C158.353 91.8602 158.367 92.2254 158.367 92.5953Z" fill="#142850"/>
<path id="Vector_5" d="M158.367 92.5954C158.367 92.9269 158.358 93.2536 158.329 93.5755L138.177 91.1539L158.319 91.4999C158.353 91.8602 158.367 92.2254 158.367 92.5954Z" fill="#D0CDE1"/>
<path id="Vector_6" d="M153.56 99.3749L134.917 101.619C134.388 101.029 133.912 100.394 133.494 99.7208L153.56 99.3749Z" fill="#D0CDE1"/>
<path id="Vector_7" d="M148.272 84.4801L133.004 86.3155C133.293 85.7611 133.624 85.2295 133.994 84.7251L148.272 84.4801Z" fill="#D0CDE1"/>
</g>
<g id="bottom-right-globe">
<path id="Vector_8" d="M342.842 334.816C342.686 335.109 342.525 335.393 342.348 335.664C341.284 337.358 339.854 338.794 338.165 339.866C336.475 340.938 334.567 341.621 332.58 341.863C330.593 342.105 328.577 341.902 326.679 341.267C324.781 340.632 323.048 339.582 321.607 338.193C320.166 336.805 319.053 335.112 318.35 333.239C317.646 331.366 317.369 329.36 317.539 327.367C317.709 325.373 318.322 323.443 319.333 321.716C320.344 319.99 321.728 318.51 323.383 317.385C323.899 317.031 324.44 316.717 325.004 316.445C327.472 315.228 330.255 314.797 332.976 315.21C335.697 315.623 338.226 316.86 340.222 318.755C342.218 320.649 343.584 323.11 344.137 325.805C344.69 328.5 344.402 331.299 343.313 333.826C343.174 334.16 343.015 334.489 342.842 334.816Z" fill="#142850"/>
<path id="Vector_9" d="M342.842 334.816C342.686 335.109 342.525 335.393 342.348 335.664L325.683 324.083L343.313 333.826C343.174 334.16 343.015 334.489 342.842 334.816Z" fill="#D0CDE1"/>
<path id="Vector_10" d="M335.416 338.552L317.895 331.799C317.705 331.031 317.582 330.246 317.529 329.456L335.416 338.552Z" fill="#D0CDE1"/>
<path id="Vector_11" d="M337.731 322.918L323.383 317.385C323.899 317.031 324.44 316.717 325.004 316.445L337.731 322.918Z" fill="#D0CDE1"/>
</g>
<g id="top-right-globe">
<path id="Vector_12" d="M438.178 102.902C438.409 103.139 438.631 103.38 438.835 103.63C440.124 105.16 441.056 106.959 441.563 108.894C442.069 110.83 442.137 112.854 441.762 114.819C441.387 116.784 440.578 118.641 439.394 120.254C438.21 121.867 436.681 123.196 434.918 124.144C433.155 125.091 431.203 125.634 429.204 125.733C427.204 125.831 425.208 125.483 423.361 124.713C421.513 123.943 419.861 122.77 418.524 121.281C417.187 119.792 416.199 118.024 415.633 116.105C415.453 115.506 415.318 114.895 415.231 114.276C414.824 111.555 415.263 108.775 416.486 106.311C417.71 103.847 419.661 101.817 422.075 100.495C424.489 99.1739 427.25 98.624 429.986 98.9201C432.723 99.2161 435.303 100.344 437.378 102.151C437.654 102.386 437.919 102.637 438.178 102.902Z" fill="#142850"/>
<path id="Vector_13" d="M438.178 102.902C438.409 103.139 438.631 103.38 438.835 103.63L422.716 115.959L437.378 102.151C437.654 102.386 437.919 102.637 438.178 102.902Z" fill="#D0CDE1"/>
<path id="Vector_14" d="M439.472 111.11L427.693 125.726C426.902 125.673 426.118 125.551 425.349 125.36L439.472 111.11Z" fill="#D0CDE1"/>
<path id="Vector_15" d="M425.281 104.137L415.633 116.105C415.453 115.506 415.318 114.895 415.231 114.276L425.281 104.137Z" fill="#D0CDE1"/>
</g>
<g id="lamp">
<path id="Vector_16" d="M172.477 213.281L172.254 213.251L172.799 215.321C173.313 218.207 174.061 221.048 175.034 223.814L191.007 284.502C191.517 286.439 192.582 288.185 194.07 289.526C195.559 290.867 197.406 291.744 199.387 292.05L231.961 297.087C234.068 297.412 236.223 297.076 238.13 296.125C240.037 295.174 241.602 293.655 242.608 291.777L273.564 233.987C274.532 232.386 275.415 230.736 276.212 229.043L277.263 227.081L277.099 227.06C280.381 219.301 281.825 210.89 281.32 202.482C280.815 194.073 278.374 185.895 274.187 178.585C270 171.275 264.18 165.03 257.181 160.337C250.183 155.643 242.194 152.629 233.838 151.529C225.483 150.428 216.986 151.271 209.009 153.992C201.033 156.713 193.794 161.238 187.855 167.215C181.916 173.192 177.438 180.459 174.771 188.449C172.104 196.439 171.319 204.937 172.477 213.281H172.477Z" fill="#DAE1E7"/>
<path id="outer-shine" d="M233.96 301.052C233.387 301.052 232.814 301.008 232.247 300.92L198.197 295.655C196.035 295.321 194.017 294.363 192.391 292.899C190.766 291.434 189.603 289.527 189.047 287.412L172.351 223.977C171.33 221.073 170.546 218.091 170.006 215.061L169.584 212.286C168.448 203.42 169.389 194.412 172.333 185.972C175.278 177.532 180.145 169.892 186.55 163.654C192.956 157.417 200.724 152.753 209.242 150.031C217.76 147.308 226.795 146.602 235.633 147.968L235.486 148.917C226.744 147.571 217.808 148.285 209.392 151.003C200.975 153.72 193.311 158.366 187.009 164.57C180.708 170.774 175.945 178.363 173.099 186.733C170.253 195.103 169.404 204.022 170.619 212.779L170.944 214.855C171.48 217.859 172.258 220.816 173.269 223.695L189.977 287.168C190.486 289.102 191.548 290.846 193.035 292.185C194.521 293.524 196.367 294.4 198.344 294.705L232.394 299.97C234.497 300.293 236.648 299.957 238.552 299.007C240.456 298.058 242.019 296.541 243.025 294.668L243.873 295.121C242.911 296.912 241.481 298.41 239.736 299.454C237.99 300.498 235.995 301.05 233.96 301.052Z" fill="#D0CDE1"/>
<path id="right-line" d="M242.598 227.075L221.88 283.613L223.047 284.04L243.765 227.502L242.598 227.075Z" fill="#D0CDE1"/>
<path id="left-line" d="M208.77 221.844L207.528 221.898L210.172 282.051L211.414 281.996L208.77 221.844Z" fill="#D0CDE1"/>
<path id="Vector_17" d="M231.082 329.811L187.452 323.065C187.127 323.013 186.837 322.834 186.643 322.569C186.45 322.303 186.37 321.972 186.42 321.647C186.47 321.323 186.647 321.031 186.911 320.837C187.176 320.642 187.507 320.56 187.832 320.608L231.462 327.354C231.624 327.378 231.78 327.434 231.921 327.518C232.061 327.603 232.183 327.714 232.281 327.846C232.378 327.978 232.448 328.128 232.487 328.287C232.526 328.446 232.533 328.612 232.508 328.773C232.483 328.935 232.426 329.091 232.341 329.231C232.256 329.371 232.144 329.492 232.011 329.589C231.878 329.685 231.728 329.754 231.569 329.792C231.409 329.83 231.244 329.837 231.082 329.811Z" fill="#3F3D56"/>
<path id="Vector_18" d="M232.201 320.55L188.57 313.804C188.408 313.78 188.253 313.724 188.112 313.64C187.972 313.555 187.849 313.444 187.752 313.312C187.655 313.18 187.585 313.03 187.546 312.871C187.507 312.712 187.499 312.547 187.524 312.385C187.549 312.223 187.606 312.068 187.692 311.928C187.777 311.788 187.889 311.666 188.022 311.57C188.154 311.473 188.305 311.404 188.464 311.366C188.623 311.328 188.789 311.322 188.951 311.348L232.581 318.094C232.743 318.118 232.899 318.174 233.039 318.258C233.18 318.343 233.302 318.454 233.399 318.586C233.497 318.718 233.567 318.868 233.606 319.027C233.645 319.186 233.652 319.351 233.627 319.513C233.602 319.675 233.545 319.831 233.46 319.97C233.375 320.11 233.262 320.232 233.13 320.328C232.997 320.425 232.847 320.494 232.688 320.532C232.528 320.57 232.363 320.576 232.201 320.55Z" fill="#3F3D56"/>
<path id="Vector_19" d="M233.319 311.29L189.689 304.544C189.365 304.492 189.074 304.314 188.881 304.048C188.687 303.783 188.607 303.452 188.657 303.127C188.708 302.802 188.884 302.511 189.149 302.316C189.413 302.121 189.744 302.039 190.069 302.088L233.7 308.834C234.024 308.886 234.315 309.064 234.508 309.33C234.701 309.595 234.782 309.926 234.731 310.251C234.681 310.575 234.504 310.867 234.24 311.062C233.975 311.256 233.644 311.339 233.319 311.29H233.319Z" fill="#3F3D56"/>
<path id="Vector_20" d="M207.911 335.199C216.565 336.537 224.327 332.802 225.247 326.855L193.907 322.009C192.987 327.956 199.256 333.861 207.911 335.199Z" fill="#3F3D56"/>
<path id="swiggle" d="M223.594 215.164C221.732 214.876 220.192 213.405 219.348 212.42C219.071 212.096 218.801 211.761 218.531 211.425C217.548 210.202 216.619 209.046 215.326 208.444C212.472 207.113 209.109 208.972 206.198 210.966L205.494 209.941C208.695 207.748 212.428 205.722 215.852 207.317C217.407 208.042 218.472 209.366 219.5 210.647C219.762 210.973 220.024 211.298 220.292 211.611C221.17 212.636 222.921 214.297 224.798 213.914C225.588 213.683 226.324 213.294 226.959 212.77C227.443 212.409 227.954 212.087 228.488 211.806C229.571 211.286 230.784 211.099 231.974 211.267C233.163 211.435 234.277 211.951 235.174 212.75C235.493 213.053 235.796 213.373 236.081 213.709C236.64 214.346 237.168 214.948 237.856 215.166C238.872 215.491 239.947 214.911 241.085 214.297C242.259 213.664 243.472 213.009 244.849 213.171C244.894 213.176 244.939 213.182 244.983 213.189C247.433 213.568 248.562 216.275 249.201 218.296L248.015 218.67C247.147 215.924 246.089 214.558 244.703 214.405C243.717 214.289 242.726 214.824 241.676 215.391C240.36 216.101 238.997 216.835 237.478 216.351C236.462 216.028 235.792 215.266 235.146 214.529C234.891 214.227 234.62 213.94 234.334 213.667C233.62 213.042 232.739 212.638 231.799 212.506C230.858 212.373 229.9 212.516 229.04 212.919C228.564 213.172 228.108 213.462 227.677 213.785C226.905 214.414 226.009 214.873 225.047 215.131C224.569 215.229 224.076 215.24 223.594 215.164Z" fill="#D0CDE1"/>
</g>
</g>
</svg>
