<svg width="212" height="33" viewBox="0 0 212 33" fill="none" xmlns="http://www.w3.org/2000/svg">
<g id="logo">
<g id="wolf">
<path id="Vector" d="M22.1292 0L16.4532 7.97292H11.5668L5.89527 0L0 17.4845L8.43935 25.6934L10.3036 32.6129H17.7253L19.5895 25.6934L28.0244 17.4757L22.1292 0ZM26.6603 16.1731L22.8178 12.9997L20.8001 7.57514L19.3482 10.1454L17.2296 8.39691L21.8485 1.89269L26.6603 16.1731ZM18.8131 17.8254L14.725 12.4752L16.6813 9.07444L26.3313 17.0299L18.8131 17.8254ZM14.01 11.9463L12.216 8.83403H15.8041L14.01 11.9463ZM9.21135 17.8254L1.70629 17.0299L11.3563 9.07444L13.3126 12.4752L9.21135 17.8254ZM6.17599 1.89269L10.7948 8.39254L8.67622 10.141L7.22433 7.57514L5.21099 13.0041L1.36854 16.1775L6.17599 1.89269ZM9.22013 25.2345L1.70191 17.9085L6.96554 18.468L9.70701 21.2699V18.5816C9.72375 18.5725 9.73986 18.5623 9.75526 18.551L13.5714 13.5592V29.6886L11.1501 31.7387H10.9703L9.22013 25.2345ZM18.8043 25.2345L17.0498 31.7343H16.8743L14.4487 29.6843V13.5592L18.2034 18.4811V21.2699L20.9317 18.4811L26.3182 17.9085L18.8043 25.2345Z" fill="#142850"/>
</g>
<path id="Miguel Lopez" d="M35.977 10.5831C36.623 10.3111 37.184 10.1751 37.66 10.1751C38.136 10.1751 38.5553 10.2205 38.918 10.3111C39.2807 10.4018 39.649 10.5548 40.023 10.7701C40.4083 10.9741 40.7653 11.2291 41.094 11.5351C41.7287 12.1358 42.267 12.8158 42.709 13.5751L46.109 19.9501L51.039 11.4671H51.192L52.96 21.4631C53.232 23.0045 53.7023 24.2285 54.371 25.1351C55.0397 26.0531 55.9577 26.5121 57.125 26.5121C57.2043 26.5121 57.278 26.5121 57.346 26.5121V26.6821C56.7227 26.8521 56.1107 26.9371 55.51 26.9371C54.286 26.9371 53.1697 26.4555 52.161 25.4921C51.1863 24.5741 50.5233 23.2311 50.172 21.4631L49.339 16.5161L46.143 22.0581C45.7123 22.7721 45.4913 23.4011 45.48 23.9451H45.327L41.094 15.9211L40.261 22.7211C40.227 22.9818 40.3403 23.1915 40.601 23.3501C40.703 23.4181 40.8107 23.4521 40.924 23.4521H41.196V23.6051H37.643V23.4351H37.915C38.2097 23.4351 38.4703 23.3501 38.697 23.1801C38.935 22.9988 39.0823 22.7551 39.139 22.4491L40.295 14.3401C39.785 13.4335 39.2013 12.6288 38.544 11.9261C37.8073 11.1328 37.0367 10.7361 36.232 10.7361C36.1527 10.7361 36.079 10.7418 36.011 10.7531L35.977 10.5831ZM58.9062 23.4351C59.2008 23.4351 59.4502 23.3331 59.6542 23.1291C59.8695 22.9138 59.9828 22.6588 59.9942 22.3641V12.9291C59.9828 12.6345 59.8695 12.3851 59.6542 12.1811C59.4502 11.9771 59.2008 11.8751 58.9062 11.8751H58.6852V11.7051H63.8532L63.8362 11.8751H63.6322C63.3375 11.8751 63.0825 11.9771 62.8672 12.1811C62.6518 12.3851 62.5442 12.6345 62.5442 12.9291V22.3641C62.5442 22.6588 62.6518 22.9138 62.8672 23.1291C63.0825 23.3331 63.3375 23.4351 63.6322 23.4351H63.8362L63.8532 23.6051H58.6852V23.4351H58.9062ZM81.9799 18.0801H81.7249C81.4529 18.0801 81.2433 18.1481 81.0959 18.2841C80.9486 18.4088 80.8749 18.5958 80.8749 18.8451V21.6501C80.4329 22.2281 79.7019 22.7381 78.6819 23.1801C77.6619 23.6221 76.5173 23.8431 75.2479 23.8431C73.3099 23.8431 71.7516 23.2878 70.5729 22.1771C69.4056 21.0551 68.8219 19.5478 68.8219 17.6551C68.8219 15.7511 69.4056 14.2438 70.5729 13.1331C71.7516 12.0225 73.3439 11.4671 75.3499 11.4671C76.2566 11.4671 77.1349 11.5578 77.9849 11.7391C78.8349 11.9091 79.5206 12.1245 80.0419 12.3851L80.0759 15.3091H79.9229C79.6283 14.2098 79.1239 13.4165 78.4099 12.9291C77.6959 12.4305 76.8459 12.1811 75.8599 12.1811C74.4886 12.1811 73.4346 12.6741 72.6979 13.6601C71.9613 14.6348 71.5929 15.9778 71.5929 17.6891C71.5929 19.3891 71.9273 20.7208 72.5959 21.6841C73.2759 22.6475 74.2336 23.1291 75.4689 23.1291C76.3643 23.1291 77.1123 22.8741 77.7129 22.3641C78.0076 22.1035 78.2229 21.7975 78.3589 21.4461V18.8451C78.3589 18.5958 78.2796 18.4088 78.1209 18.2841C77.9736 18.1481 77.7583 18.0801 77.4749 18.0801H77.2029V17.9101H81.9799V18.0801ZM99.3589 11.8751H99.0699C98.8319 11.8751 98.6222 11.9545 98.4409 12.1131C98.2709 12.2605 98.1859 12.4475 98.1859 12.6741V19.3041C98.1859 20.6981 97.7495 21.8031 96.8769 22.6191C96.0042 23.4351 94.8085 23.8431 93.2899 23.8431C91.4992 23.8431 90.1279 23.4465 89.1759 22.6531C88.2239 21.8485 87.7479 20.7378 87.7479 19.3211V12.7251C87.7479 12.4758 87.6572 12.2718 87.4759 12.1131C87.3059 11.9545 87.0962 11.8751 86.8469 11.8751H86.5749V11.7051H91.4709V11.8751H91.1989C90.9495 11.8751 90.7399 11.9545 90.5699 12.1131C90.3999 12.2605 90.3092 12.4531 90.2979 12.6911V19.1851C90.2979 20.3865 90.5925 21.3385 91.1819 22.0411C91.7712 22.7438 92.5815 23.0951 93.6129 23.0951C94.6442 23.0951 95.4602 22.7665 96.0609 22.1091C96.6615 21.4405 96.9675 20.5395 96.9789 19.4061V12.6911C96.9789 12.4531 96.8882 12.2605 96.7069 12.1131C96.5369 11.9545 96.3272 11.8751 96.0779 11.8751H95.8059V11.7051H99.3589V11.8751ZM104.586 23.4351C104.881 23.4351 105.13 23.3331 105.334 23.1291C105.55 22.9138 105.663 22.6588 105.674 22.3641V12.8951C105.64 12.4985 105.453 12.2038 105.113 12.0111C104.943 11.9205 104.768 11.8751 104.586 11.8751H104.365V11.7051H110.876C111.228 11.7051 111.613 11.6711 112.032 11.6031C112.452 11.5351 112.746 11.4671 112.916 11.3991V14.3741H112.746V14.1701C112.746 13.6601 112.593 13.2521 112.287 12.9461C111.993 12.6288 111.59 12.4588 111.08 12.4361H108.224V17.3831H110.468C110.888 17.3718 111.233 17.2301 111.505 16.9581C111.777 16.6748 111.913 16.3291 111.913 15.9211V15.7681H112.083V19.6951H111.913V19.5591C111.913 18.9925 111.687 18.5731 111.233 18.3011C111.007 18.1765 110.757 18.1085 110.485 18.0971H108.224V22.8741H110.451C111.279 22.8741 111.97 22.6361 112.525 22.1601C113.092 21.6841 113.511 21.0098 113.783 20.1371H113.953L113.171 23.6051H104.365V23.4351H104.586ZM119.155 23.4351C119.449 23.4351 119.699 23.3331 119.903 23.1291C120.118 22.9138 120.231 22.6588 120.243 22.3641V12.9461C120.231 12.6515 120.118 12.4021 119.903 12.1981C119.699 11.9828 119.449 11.8751 119.155 11.8751H118.934V11.7051H124.102L124.085 11.8751H123.881C123.586 11.8751 123.331 11.9828 123.116 12.1981C122.9 12.4021 122.793 12.6515 122.793 12.9461V22.8741H125.02C125.847 22.8741 126.538 22.6361 127.094 22.1601C127.66 21.6841 128.08 21.0098 128.352 20.1371H128.522L127.74 23.6051H118.934V23.4351H119.155ZM155.283 25.9681C156.462 25.9681 157.414 25.7358 158.139 25.2711L158.258 25.4071C157.283 26.7558 156.071 27.5038 154.62 27.6511C154.314 27.6851 154.048 27.7021 153.821 27.7021C153.606 27.7021 153.351 27.6908 153.056 27.6681C152.773 27.6568 152.37 27.5831 151.849 27.4471C151.328 27.3111 150.869 27.1695 150.472 27.0221C150.075 26.8861 149.616 26.6991 149.095 26.4611C148.574 26.2345 148.143 26.0305 147.803 25.8491C147.463 25.6791 147.055 25.4695 146.579 25.2201C146.114 24.9821 145.706 24.7781 145.355 24.6081C145.004 24.4381 144.664 24.2908 144.335 24.1661C143.406 23.7921 142.454 23.6051 141.479 23.6051V23.4351H141.7C141.995 23.4351 142.244 23.3331 142.448 23.1291C142.663 22.9251 142.777 22.6701 142.788 22.3641V12.9461C142.777 12.6401 142.663 12.3851 142.448 12.1811C142.244 11.9771 141.995 11.8751 141.7 11.8751H141.479V11.7051H146.647L146.63 11.8751H146.46C146.029 11.8751 145.706 12.0508 145.491 12.4021C145.389 12.5608 145.338 12.7421 145.338 12.9461V22.8061C145.338 23.1801 145.412 23.4408 145.559 23.5881C145.706 23.7241 145.871 23.8205 146.052 23.8771C150.313 25.2711 153.39 25.9681 155.283 25.9681ZM159.045 11.4671C161.141 11.4671 162.807 12.0225 164.043 13.1331C165.278 14.2438 165.896 15.7511 165.896 17.6551C165.896 19.5591 165.278 21.0665 164.043 22.1771C162.807 23.2878 161.141 23.8431 159.045 23.8431C156.948 23.8431 155.282 23.2878 154.047 22.1771C152.811 21.0665 152.194 19.5591 152.194 17.6551C152.194 16.3971 152.471 15.3035 153.027 14.3741C153.593 13.4335 154.392 12.7138 155.424 12.2151C156.455 11.7165 157.662 11.4671 159.045 11.4671ZM156.07 21.6671C156.806 22.6418 157.798 23.1291 159.045 23.1291C160.291 23.1291 161.277 22.6418 162.003 21.6671C162.739 20.6811 163.108 19.3438 163.108 17.6551C163.108 16.5445 162.943 15.5755 162.615 14.7481C162.286 13.9208 161.816 13.2861 161.204 12.8441C160.592 12.4021 159.872 12.1811 159.045 12.1811C157.798 12.1811 156.806 12.6741 156.07 13.6601C155.344 14.6348 154.982 15.9665 154.982 17.6551C154.982 19.3438 155.344 20.6811 156.07 21.6671ZM180.437 16.5841C180.052 17.4681 179.338 18.0801 178.295 18.4201C177.989 18.5221 177.706 18.5731 177.445 18.5731C176.641 18.5731 175.921 18.3635 175.286 17.9441V17.7741C176.136 17.7968 176.822 17.5191 177.343 16.9411C177.808 16.4425 178.04 15.7908 178.04 14.9861C178.04 13.7508 177.61 12.9518 176.748 12.5891C176.476 12.4758 176.176 12.4191 175.847 12.4191H174.708V22.3641C174.708 22.6588 174.816 22.9138 175.031 23.1291C175.247 23.3331 175.502 23.4351 175.796 23.4351H176.017V23.6051H170.849V23.4351H171.07C171.365 23.4351 171.614 23.3331 171.818 23.1291C172.034 22.9138 172.147 22.6588 172.158 22.3641V12.8611C172.113 12.4758 171.92 12.1925 171.58 12.0111C171.422 11.9205 171.252 11.8751 171.07 11.8751H170.849V11.7051H176.527C178.579 11.7051 179.893 12.3568 180.471 13.6601C180.653 14.0908 180.743 14.5725 180.743 15.1051C180.743 15.6265 180.641 16.1195 180.437 16.5841ZM186.036 23.4351C186.33 23.4351 186.58 23.3331 186.784 23.1291C186.999 22.9138 187.112 22.6588 187.124 22.3641V12.8951C187.09 12.4985 186.903 12.2038 186.563 12.0111C186.393 11.9205 186.217 11.8751 186.036 11.8751H185.815V11.7051H192.326C192.677 11.7051 193.062 11.6711 193.482 11.6031C193.901 11.5351 194.196 11.4671 194.366 11.3991V14.3741H194.196V14.1701C194.196 13.6601 194.043 13.2521 193.737 12.9461C193.442 12.6288 193.04 12.4588 192.53 12.4361H189.674V17.3831H191.918C192.337 17.3718 192.683 17.2301 192.955 16.9581C193.227 16.6748 193.363 16.3291 193.363 15.9211V15.7681H193.533V19.6951H193.363V19.5591C193.363 18.9925 193.136 18.5731 192.683 18.3011C192.456 18.1765 192.207 18.1085 191.935 18.0971H189.674V22.8741H191.901C192.728 22.8741 193.419 22.6361 193.975 22.1601C194.541 21.6841 194.961 21.0098 195.233 20.1371H195.403L194.621 23.6051H185.815V23.4351H186.036ZM200.738 11.3821C200.908 11.4501 201.203 11.5181 201.622 11.5861C202.053 11.6541 202.353 11.6881 202.523 11.6881C202.705 11.6881 202.795 11.6881 202.795 11.6881H208.218C208.774 11.6881 209.199 11.6598 209.493 11.6031C209.788 11.5351 209.958 11.4898 210.003 11.4671V11.6201L203.713 22.8911H207.283C208.009 22.8911 208.638 22.6475 209.17 22.1601C209.714 21.6728 210.1 21.0155 210.326 20.1881H210.496L209.884 23.6051H200.5V23.4521L206.739 12.4021H202.625C202.104 12.4135 201.685 12.5778 201.367 12.8951C201.061 13.2011 200.908 13.6148 200.908 14.1361V14.3401H200.738V11.3821Z" fill="#142850"/>
</g>
</svg>
