<svg width="156" height="279" viewBox="0 0 156 279" fill="none" xmlns="http://www.w3.org/2000/svg">
<g id="person" clip-path="url(#clip0)">
<path id="Vector" d="M33.5411 150.305C32.6718 150.259 31.8223 150.028 31.0493 149.627C30.2764 149.226 29.5978 148.664 29.059 147.979C28.5202 147.294 28.1336 146.502 27.925 145.656C27.7164 144.81 27.6907 143.929 27.8495 143.072L30.8462 126.901L37.9868 127.496L39.9311 143.45C40.0392 144.338 39.9521 145.238 39.6758 146.087C39.3995 146.937 38.9408 147.716 38.3318 148.369C37.7228 149.023 36.9784 149.534 36.1508 149.869C35.3231 150.203 34.4324 150.352 33.5411 150.305V150.305Z" fill="#9F616A"/>
<path id="Vector_2" d="M84.2742 246.357L75.3823 245.942L68.7831 160.22L60.3095 198.31L59.06 250.721L50.5158 249.384L43.2211 195.636L46.3185 131.071L95.6072 137.081L84.2742 246.357Z" fill="#2F2E41"/>
<path id="Vector_3" d="M82.4172 267.816C81.5188 267.908 80.6111 267.811 79.7524 267.531C78.8936 267.251 78.1029 266.794 77.4311 266.19C76.7593 265.585 76.2212 264.847 75.8515 264.021C75.4819 263.196 75.2888 262.303 75.2847 261.399L75.2215 247.415C75.2202 247.081 75.301 246.752 75.4566 246.456C75.6123 246.16 75.838 245.907 76.1141 245.719C78.552 244.06 81.2412 244.125 84.145 245.665C84.4028 245.803 84.6278 245.995 84.8045 246.228C84.9813 246.461 85.1058 246.729 85.1694 247.015L88.0679 259.955C88.2679 260.848 88.2767 261.773 88.0938 262.67C87.9108 263.567 87.5401 264.414 87.0063 265.157C86.4724 265.9 85.7874 266.521 84.9964 266.979C84.2054 267.437 83.3264 267.723 82.4172 267.816V267.816Z" fill="#2F2E41"/>
<path id="Vector_4" d="M38.2436 265.049C37.5347 264.521 36.9549 263.839 36.5483 263.054C36.1416 262.269 35.9186 261.401 35.8962 260.517C35.8738 259.632 36.0526 258.754 36.419 257.949C36.7853 257.143 37.3298 256.432 38.0111 255.868L50.9828 245.131C54.9191 243.76 56.5403 245.476 56.011 250.059L59.1835 246.031L60.1114 247.935C60.5823 248.902 60.6964 250.004 60.4336 251.047C60.1707 252.09 59.5479 253.006 58.6754 253.634L45.1223 265.102C44.1178 265.825 42.91 266.209 41.6734 266.199C40.4369 266.19 39.2357 265.787 38.2436 265.049Z" fill="#2F2E41"/>
<path id="Vector_5" d="M82.9427 44.0075C90.197 43.2619 95.4724 36.7684 94.7257 29.504C93.979 22.2396 87.4929 16.9551 80.2386 17.7008C72.9843 18.4465 67.7088 24.9399 68.4556 32.2043C69.2023 39.4687 75.6884 44.7532 82.9427 44.0075Z" fill="#9F616A"/>
<path id="Vector_6" d="M92.3883 54.1136L69.608 52.0244C71.8527 45.5856 73.9424 43.2704 70.7027 36.8472L88.654 35.002C87.7826 42.0896 89.9807 48.432 92.3883 54.1136Z" fill="#9F616A"/>
<path id="Vector_7" d="M98.865 142.95L44.7925 133.443C52.9321 109.167 52.5188 83.4745 46.6315 56.8762C46.4888 56.2337 46.4768 55.5691 46.5963 54.922C46.7158 54.2749 46.9644 53.6585 47.3272 53.1099C47.6899 52.5612 48.1595 52.0914 48.7077 51.7286C49.256 51.3658 49.8716 51.1174 50.518 50.9983C57.3132 49.7285 64.3838 48.2685 71.6942 46.493L80.5989 51.3377L90.006 48.1553C93.251 49.3378 96.4925 50.2655 99.4301 51.2206C102.108 52.0941 104.366 53.9352 105.762 56.3848C107.159 58.8344 107.594 61.7168 106.983 64.4698C101.084 91.2395 97.9893 117.474 98.865 142.95Z" fill="#27496D"/>
<path id="Vector_8" d="M39.4805 129.115L29.2751 128.835L46.0558 57.5486C46.9094 53.9225 49.724 51.718 53.334 50.8172L56.8818 50.8956L58.4461 91.9411L39.4805 129.115Z" fill="#27496D"/>
<path id="Vector_9" d="M117.011 107.848C115.348 108.149 113.632 107.917 112.108 107.184C110.583 106.451 109.329 105.254 108.524 103.765L96.5411 81.6006L101.493 52.2916L103.713 53.405C103.926 53.5123 104.138 53.623 104.347 53.7372C110.771 57.2412 114.446 64.293 113.961 71.6009L113.147 83.8814L123.499 101.239C123.232 102.877 122.465 104.391 121.303 105.575C120.141 106.758 118.642 107.552 117.011 107.848V107.848Z" fill="#27496D"/>
<path id="Vector_10" d="M80.597 11.2557C82.8519 11.1283 85.1044 11.5481 87.1627 12.4795C87.6361 12.6939 87.5261 13.6538 87.9704 13.9175C88.5299 14.2496 89.6345 13.8994 90.1413 14.3037C91.7765 15.6036 93.1021 17.2519 94.0216 19.1288C94.9412 21.0058 95.4317 23.0641 95.4574 25.1544L95.4746 32.5273L93.5509 30.8115C90.0969 27.6879 85.5756 26.0144 80.9239 26.1379C80.7264 26.1447 80.5289 26.1544 80.3314 26.1671L81.422 23.6992L79.3481 26.2519C78.2947 26.3719 77.251 26.5659 76.2248 26.8324L77.6752 23.5506L74.6303 27.2984L74.6301 27.2986C73.2734 27.747 72.0409 28.5082 71.032 29.521C70.023 30.5338 69.2658 31.7698 68.8214 33.1294L68.5305 34.0049L67.3926 27.0863C67.1531 25.1663 67.3105 23.2177 67.855 21.3615C68.3996 19.5052 69.3198 17.7811 70.5582 16.2964C71.7967 14.8116 73.3269 13.5979 75.054 12.7308C76.781 11.8636 78.6677 11.3615 80.597 11.2557V11.2557Z" fill="#2F2E41"/>
<path id="Vector_11" d="M95.3308 34.5473C95.9135 34.4874 96.2704 33.3155 96.1279 31.9297C95.9855 30.544 95.3977 29.4692 94.815 29.5291C94.2323 29.589 93.8755 30.7609 94.0179 32.1466C94.1604 33.5324 94.7482 34.6072 95.3308 34.5473Z" fill="#9F616A"/>
<path id="Vector_12" d="M68.8744 36.4661C69.4571 36.4062 69.8139 35.2343 69.6715 33.8485C69.5291 32.4628 68.9412 31.3879 68.3586 31.4478C67.7759 31.5077 67.4191 32.6796 67.5615 34.0654C67.7039 35.4511 68.2918 36.526 68.8744 36.4661Z" fill="#9F616A"/>
<g id="right-arm">
<path id="Vector_13" d="M123.392 62.202C124.254 62.3217 125.081 62.6243 125.817 63.0896C126.553 63.555 127.182 64.1723 127.66 64.9004C128.139 65.6284 128.457 66.4505 128.593 67.3114C128.729 68.1724 128.68 69.0525 128.45 69.8929L124.093 85.7498L117.028 84.5497L116.443 68.4885C116.411 67.5953 116.574 66.7059 116.921 65.8827C117.269 65.0595 117.792 64.3224 118.454 63.7234C119.116 63.1243 119.901 62.6776 120.754 62.4148C121.607 62.152 122.507 62.0794 123.392 62.202V62.202Z" fill="#9F616A"/>
<path id="Vector_14" d="M119.914 106.669L108.247 100.779L115.503 80.9807L127.338 84.195L123.358 101.441L119.914 106.669Z" fill="#27496D"/>
</g>
</g>
<defs>
<clipPath id="clip0">
<rect width="127.744" height="266.083" fill="white" transform="translate(0.858887 13.6871) rotate(-5.86888)"/>
</clipPath>
</defs>
</svg>
